<svg height="1em" width="1em" xmlns="http://www.w3.org/2000/svg" viewBox="0 0 64 64" x="0px" y="0px" fill="white" stroke="white">
                <g data-name="Billing Strategy">
                  <path d="M32,47A15,15,0,1,0,17,32,15.0167,15.0167,0,0,0,32,47Zm0-28A13,13,0,1,1,19,32,13.0147,13.0147,0,0,1,32,19Zm0,33A20,20,0,1,0,12,32,20.0226,20.0226,0,0,0,32,52Zm0-38A18,18,0,1,1,14,32,18.0206,18.0206,0,0,1,32,14Zm2,21.0947a1.904,1.904,0,0,0-1.3032-1.8086L30.67,32.61A3.8987,3.8987,0,0,1,31,25.1166V24a1,1,0,0,1,2,0v1.1166a3.9049,3.9049,0,0,1,3,3.7887,1.0417,1.0417,0,0,1-1,1.0478A.9608.9608,0,0,1,34,29v-.0947A1.9076,1.9076,0,0,0,32.0942,27h-.1884a1.9058,1.9058,0,0,0-.6026,3.7139L33.33,31.39A3.8987,3.8987,0,0,1,33,38.8834V40a1,1,0,0,1-2,0V38.8834a3.9049,3.9049,0,0,1-3-3.7887,1.0417,1.0417,0,0,1,1-1.0478A.9608.9608,0,0,1,30,35a1.93,1.93,0,0,0,1.9058,2h.1884A1.9076,1.9076,0,0,0,34,35.0947ZM56,48v6a1,1,0,0,1-2,0V50.8767A28.99,28.99,0,0,1,3,32,28.7376,28.7376,0,0,1,5.7915,19.5713a1,1,0,1,1,1.8066.8574A26.7534,26.7534,0,0,0,5,32,26.9935,26.9935,0,0,0,52.9666,49H49a1,1,0,0,1,0-2h6A1.0449,1.0449,0,0,1,56,48Zm5-16a28.7373,28.7373,0,0,1-2.7915,12.4287,1,1,0,1,1-1.8066-.8574A26.7534,26.7534,0,0,0,59,32,26.9935,26.9935,0,0,0,11.0334,15H15a1,1,0,0,1,0,2H9a1.045,1.045,0,0,1-1-1V10a1,1,0,0,1,2,0v3.1233A28.99,28.99,0,0,1,61,32Z"></path>
                </g>
              </svg>