<?xml version="1.0" standalone="no"?>
<!DOCTYPE svg PUBLIC "-//W3C//DTD SVG 20010904//EN"
 "http://www.w3.org/TR/2001/REC-SVG-20010904/DTD/svg10.dtd">
<svg version="1.0" xmlns="http://www.w3.org/2000/svg"
 width="512.000000pt" height="512.000000pt" viewBox="0 0 512.000000 512.000000"
 preserveAspectRatio="xMidYMid meet">
<metadata>
Created by potrace 1.16, written by Peter Selinger 2001-2019
</metadata>
<g transform="translate(0.000000,512.000000) scale(0.100000,-0.100000)"
fill="#000000" stroke="none">
<path d="M1517 4944 c-163 -39 -326 -168 -404 -319 -76 -146 -74 -129 -71
-818 l3 -612 28 -83 c16 -46 27 -85 25 -87 -2 -1 -176 -103 -388 -226 -419
-244 -463 -277 -516 -384 l-29 -60 -3 -1077 c-2 -1069 -2 -1078 18 -1098 20
-20 29 -20 1618 -20 1860 0 1643 -14 1929 129 179 89 216 117 229 168 l6 23
499 0 499 0 0 80 0 80 -80 0 -80 0 0 1340 c0 1327 0 1340 -20 1360 -19 19 -33
20 -340 20 -307 0 -321 -1 -340 -20 -19 -19 -20 -33 -20 -240 l0 -220 -260 0
c-247 0 -261 -1 -280 -20 -19 -19 -20 -34 -21 -277 0 -230 -2 -253 -14 -216
-27 90 -99 176 -185 225 l-40 23 0 110 0 110 143 143 142 142 158 0 c209 0
197 -12 197 197 l0 158 102 102 103 103 257 0 258 0 0 80 0 80 -302 0 -301 0
-122 -120 -121 -120 -157 0 c-209 0 -197 12 -197 -198 l0 -157 -143 -143 -142
-142 -156 0 c-159 0 -175 -4 -195 -42 -8 -15 -21 -10 -114 44 -58 33 -106 62
-108 63 -2 2 9 41 25 87 l28 83 3 676 c3 668 2 677 -19 733 -42 114 -161 196
-283 196 -50 0 -55 2 -77 35 -29 43 -94 91 -150 110 -58 21 -507 20 -592 -1z
m507 -154 c94 -21 128 -75 134 -214 l4 -101 -37 -14 c-23 -8 -78 -52 -141
-112 -96 -93 -105 -99 -144 -99 -39 0 -48 6 -140 95 -118 115 -157 135 -260
135 -85 0 -134 -18 -193 -70 -42 -36 -43 -34 -21 41 23 79 47 119 104 182 84
92 175 140 295 156 84 12 352 12 399 1z m376 -183 c51 -33 71 -76 77 -163 l6
-77 -57 46 c-31 26 -68 50 -81 53 -24 6 -25 9 -25 85 0 76 1 79 24 79 12 0 38
-10 56 -23z m-819 -393 c121 -115 157 -134 259 -134 102 0 138 19 259 134 94
90 102 96 142 96 39 0 47 -5 141 -97 l100 -98 -5 -425 c-4 -464 -6 -477 -67
-604 -65 -136 -201 -261 -342 -316 -351 -136 -739 64 -844 436 -14 50 -18 125
-21 484 l-5 425 100 98 c94 92 102 97 141 97 40 0 48 -6 142 -96z m2179 -854
l0 -80 -80 0 -80 0 0 80 0 80 80 0 80 0 0 -80z m880 -1440 l0 -1280 -200 0
-200 0 0 1280 0 1280 200 0 200 0 0 -1280z m-3360 867 c162 -157 333 -227 560
-227 146 0 240 22 370 87 78 39 112 64 189 139 l93 91 154 -90 154 -89 0 -46
c0 -47 0 -47 -142 -189 l-143 -143 -157 0 c-191 0 -198 -3 -198 -100 l0 -60
-240 0 -240 0 0 -80 0 -80 240 0 240 0 0 -60 c0 -100 1 -100 240 -100 258 0
240 -15 240 197 l0 158 142 142 143 143 125 0 c122 0 128 -1 171 -29 79 -51
129 -122 129 -186 l0 -25 -175 0 c-162 0 -177 -2 -195 -20 -19 -19 -20 -33
-20 -320 l0 -300 -260 0 c-247 0 -261 -1 -280 -20 -19 -19 -20 -33 -20 -349 0
-271 -2 -330 -14 -334 -12 -5 -1051 174 -1100 189 -47 15 -103 64 -131 116
l-30 53 -3 253 -4 252 -80 0 -79 0 3 -282 3 -283 27 -57 c36 -78 108 -152 182
-188 53 -27 132 -43 596 -125 294 -52 538 -95 543 -95 4 0 7 -93 7 -206 l0
-205 -652 4 c-741 4 -718 2 -893 87 -172 83 -281 193 -365 365 -86 176 -85
170 -85 880 0 693 -2 675 71 746 19 19 205 134 412 256 207 121 377 221 377
222 0 0 43 -41 95 -92z m1840 -67 l0 -80 -80 0 -80 0 0 80 0 80 80 0 80 0 0
-80z m960 -1040 l0 -1040 -71 0 c-64 0 -74 3 -111 33 -38 31 -44 32 -129 32
l-89 0 0 1008 0 1007 200 0 200 0 0 -1040z m-1600 400 l0 -80 -80 0 -80 0 0
80 0 80 80 0 80 0 0 -80z m1040 -705 l0 -705 -57 0 c-32 0 -86 7 -120 15 -77
18 -203 74 -203 90 0 6 12 70 26 141 30 146 25 199 -21 260 l-25 33 0 435 0
436 200 0 200 0 0 -705z m-560 -24 l0 -88 -39 -7 c-28 -4 -85 -39 -200 -121
l-161 -114 0 209 0 210 200 0 200 0 0 -89z m50 -280 c7 -14 2 -58 -20 -167
-32 -155 -36 -204 -21 -232 12 -23 230 -127 306 -147 111 -29 201 -30 365 -5
217 34 216 21 -9 -89 -86 -42 -181 -83 -211 -91 -42 -10 -159 -15 -498 -18
l-442 -4 2 218 3 218 235 168 c135 97 244 168 257 168 12 0 27 -9 33 -19z
m-2571 -632 c42 -41 90 -85 106 -97 l30 -21 -127 -1 -128 0 0 128 1 127 21
-30 c12 -16 56 -64 97 -106z"/>
<path d="M1360 3840 l0 -80 160 0 160 0 0 80 0 80 -160 0 -160 0 0 -80z"/>
<path d="M2000 3840 l0 -80 160 0 160 0 0 80 0 80 -160 0 -160 0 0 -80z"/>
<path d="M1460 3660 c-13 -13 -20 -33 -20 -60 0 -53 27 -80 80 -80 53 0 80 27
80 80 0 27 -7 47 -20 60 -13 13 -33 20 -60 20 -27 0 -47 -7 -60 -20z"/>
<path d="M2100 3660 c-13 -13 -20 -33 -20 -60 0 -53 27 -80 80 -80 53 0 80 27
80 80 0 27 -7 47 -20 60 -13 13 -33 20 -60 20 -27 0 -47 -7 -60 -20z"/>
<path d="M1840 3365 c0 -125 -31 -165 -126 -165 l-34 0 0 -80 0 -80 70 0 c82
0 130 17 179 63 57 54 71 97 71 225 l0 112 -80 0 -80 0 0 -75z"/>
<path d="M1360 2080 l0 -80 80 0 80 0 0 80 0 80 -80 0 -80 0 0 -80z"/>
<path d="M4800 3760 l0 -80 80 0 80 0 0 80 0 80 -80 0 -80 0 0 -80z"/>
<path d="M3840 240 l0 -80 120 0 120 0 0 80 0 80 -120 0 -120 0 0 -80z"/>
<path d="M4320 240 l0 -80 120 0 120 0 0 80 0 80 -120 0 -120 0 0 -80z"/>
</g>
</svg>
